<svg id="Camada_1" data-name="Camada 1" xmlns="http://www.w3.org/2000/svg" viewBox="0 0 257.72 257.72"><defs><style>.cls-1{fill:#fff;}</style></defs><title>facebook</title><path id="facebook-icon" class="cls-1" d="M177.82,257.72h65.67a14.23,14.23,0,0,0,14.23-14.23V14.22A14.23,14.23,0,0,0,243.49,0H14.22A14.22,14.22,0,0,0,0,14.22V243.49a14.23,14.23,0,0,0,14.22,14.23H137.65V157.93H104.07V119h33.58V90.36c0-33.29,20.33-51.42,50-51.42a276.68,276.68,0,0,1,30,1.53V75.26H197.1c-16.15,0-19.28,7.68-19.28,18.94V119h38.52l-5,38.89h-33.5Z"/></svg>