<svg id="Camada_1" data-name="Camada 1" xmlns="http://www.w3.org/2000/svg" viewBox="0 0 1000 1000"><defs><style>.cls-1,.cls-2{fill:#fff;}.cls-2{fill-rule:evenodd;}</style></defs><title>svgmarca grupo polis branca</title><path class="cls-1" d="M502.88,693.61l-3-.6c6.84-34.23,98.85-45.83,281.3-35.45l-.18,3.09c-178.13-10.12-271.68,1-278.08,33"/><path class="cls-1" d="M502.62,693.61c-6.4-32-100-43.08-278.09-33l-.18-3.09C406.8,647.19,498.82,658.78,505.66,693Z"/><path class="cls-1" d="M501.16,693.35a6.6,6.6,0,0,0-2.45-4.68c-17.4-16.33-116.19-21.09-293.62-14.19l-.12-3.09c180.81-7,277.58-2.13,295.87,15a9.76,9.76,0,0,1,3.42,6.87Z"/><path class="cls-2" d="M510.48,690.36c.1-2.89-3.34-5.28-7.69-5.35s-7.94,2.23-8,5.12,3.34,5.28,7.69,5.35,7.95-2.22,8-5.12"/><path class="cls-1" d="M502.62,695.65h-.18a9.4,9.4,0,0,1-6.6-2.49,4.2,4.2,0,0,1-1.25-3c.09-3,3.79-5.33,8.2-5.27a9.36,9.36,0,0,1,6.59,2.48,4.16,4.16,0,0,1,1.27,3c-.1,2.94-3.68,5.28-8,5.28m0-10.47c-4.16,0-7.6,2.2-7.69,5a3.87,3.87,0,0,0,1.17,2.8,9.07,9.07,0,0,0,6.35,2.38h.18c4.17,0,7.6-2.2,7.69-4.95a3.83,3.83,0,0,0-1.17-2.8,9.07,9.07,0,0,0-6.35-2.38Z"/><path class="cls-1" d="M504.26,693.35l-3.1-.08a9.73,9.73,0,0,1,3.43-6.87c18.28-17.14,115.06-22,295.86-15l-.12,3.09c-177.43-6.9-276.22-2.13-293.62,14.19a6.64,6.64,0,0,0-2.45,4.68"/><rect class="cls-1" x="180.16" y="685.96" width="644.91" height="3.1"/><rect class="cls-1" x="179.33" y="349.57" width="647.68" height="5.53"/><path class="cls-1" d="M827.17,355.27h-648V349.4h648Zm-647.68-.33H826.84v-5.2H179.49Z"/><path class="cls-1" d="M288.65,445.94h0c2.91.57,5.5,1,7.75,1.3a46.3,46.3,0,0,0,5.78.43q8.58,0,14.81-7t6.23-18.09a34,34,0,0,0-3-14.19,21.2,21.2,0,0,0-8.42-9.8,23.63,23.63,0,0,0-12.37-3.25A46.53,46.53,0,0,0,288.65,397Zm0,4.94v34.27q0,11.1,2.31,13.79,3.14,3.82,9.49,3.82h4.29V506H256.8v-3.21H261q7.08,0,10.15-4.86c1.09-1.79,1.65-6,1.65-12.75v-76q0-11.1-2.23-13.79-3.22-3.81-9.57-3.82H256.8v-3.21h41q15,0,23.67,3.26a32.6,32.6,0,0,1,14.61,11,29.16,29.16,0,0,1,6,18.31q0,14.38-9,23.42t-25.54,9a67.47,67.47,0,0,1-8.74-.61q-4.71-.6-10.07-1.82"/><path class="cls-1" d="M408.2,392h0q-15,0-24.09,11.71-11.3,14.56-11.3,42.68,0,28.8,11.71,44.33a28.43,28.43,0,0,0,23.76,11.8q15.77,0,26-12.93t10.27-40.77q0-30.19-11.3-45Q424.2,392,408.2,392m1.57-6.34q21.78,0,37.75,17.4t16,43.42q0,26.81-16.09,44.5t-38.94,17.7q-23.1,0-38.82-17.27t-15.72-44.68q0-28,18.15-45.71a52.14,52.14,0,0,1,37.71-15.36"/><path class="cls-1" d="M566.87,473.44l2.72.6L560,506H473.38v-3.21h4.21c4.74,0,8.11-1.62,10.15-4.86q1.74-2.77,1.73-12.84V409.15q0-11-2.3-13.79-3.23-3.81-9.58-3.82h-4.21v-3.2H524v3.2c-5.94-.05-10.1.52-12.5,1.74a10.25,10.25,0,0,0-4.9,4.59c-.89,1.86-1.32,6.28-1.32,13.28v73.91c0,4.8.43,8.1,1.32,9.89a6,6,0,0,0,3.05,2.69q2.06.87,12.87.86h8.17q12.87,0,18.07-2a23.55,23.55,0,0,0,9.49-7.07q4.29-5.07,8.58-16"/><path class="cls-1" d="M625.37,502.76V506H577.43v-3.21h4q6.93,0,10.06-4.25c1.33-1.85,2-6.31,2-13.36v-76c0-5.95-.35-9.89-1.06-11.79a7.75,7.75,0,0,0-3.39-3.74,15.12,15.12,0,0,0-7.59-2.08h-4v-3.21h47.94v3.21h-4q-6.84,0-10,4.25-2.05,2.77-2.06,13.36v76q0,8.93,1.07,11.8a7.68,7.68,0,0,0,3.47,3.73,14.66,14.66,0,0,0,7.5,2.08Z"/><path class="cls-1" d="M707,385.64v40.69h-3.06q-1.49-11.71-5.32-18.65a28.37,28.37,0,0,0-10.93-11A29.08,29.08,0,0,0,673,392.59a19.42,19.42,0,0,0-14.19,5.5,17.16,17.16,0,0,0-5.61,12.54,15.28,15.28,0,0,0,3.55,9.8q5.12,6.51,24.34,17.35,15.68,8.85,21.41,13.58a32.69,32.69,0,0,1,8.83,11.15A30.6,30.6,0,0,1,714.4,476a31.16,31.16,0,0,1-9.87,23q-9.85,9.67-25.37,9.68a51.25,51.25,0,0,1-9.16-.78,91.49,91.49,0,0,1-10.6-3.17q-8-2.73-10.19-2.73a4.2,4.2,0,0,0-3.26,1.3c-.8.86-1.38,2.66-1.77,5.38h-3.06V468.32h3.06Q646.33,481,650,487.27a28.27,28.27,0,0,0,11.1,10.46,33.14,33.14,0,0,0,16.38,4.16q10.3,0,16.29-5.73a18.1,18.1,0,0,0,6-13.53,19.12,19.12,0,0,0-2.27-8.76,25.66,25.66,0,0,0-7.06-8.24q-3.23-2.6-17.57-11.06t-20.42-13.49a35.86,35.86,0,0,1-9.2-11.1,28.61,28.61,0,0,1-3.14-13.37,29.67,29.67,0,0,1,9.24-21.82q9.26-9.14,23.52-9.15a45.39,45.39,0,0,1,18.9,4.6c3.07,1.45,5.25,2.17,6.51,2.17a4.77,4.77,0,0,0,3.51-1.34c.91-.9,1.63-2.71,2.18-5.43Z"/><path class="cls-1" d="M264,513.76l2.55,40H264q-5.13-18-14.61-25.85A34.45,34.45,0,0,0,226.6,520a35.73,35.73,0,0,0-20.13,6q-9,5.94-14.15,18.95t-5.16,32.36q0,16,4.87,27.67a37.86,37.86,0,0,0,14.65,18A40.5,40.5,0,0,0,229,629.14a37.28,37.28,0,0,0,19.22-4.9q8.33-4.9,18.31-19.48l2.56,1.74q-8.4,15.69-19.63,23t-26.65,7.29q-27.81,0-43.07-21.69-11.4-16.12-11.39-38a70.23,70.23,0,0,1,7.51-32.36,56,56,0,0,1,20.66-22.86,53.77,53.77,0,0,1,28.76-8.11A50.69,50.69,0,0,1,249.21,520c2.31,1.28,4,1.91,4.95,1.91a5.32,5.32,0,0,0,3.88-1.65,13.74,13.74,0,0,0,3-6.5Z"/><path class="cls-1" d="M327.1,630.87v3.21H279.16v-3.21h4q6.93,0,10.07-4.25c1.31-1.85,2-6.3,2-13.36v-76q0-8.94-1.07-11.8a7.69,7.69,0,0,0-3.39-3.73,15,15,0,0,0-7.59-2.08h-4v-3.21H327.1v3.21h-4.05q-6.84,0-10,4.25Q311,526.68,311,537.27v76q0,8.94,1.07,11.8a7.56,7.56,0,0,0,3.47,3.73,14.54,14.54,0,0,0,7.5,2.08Z"/><path class="cls-1" d="M451.19,516.45v3.21c-3.95.75-7,2.08-9,4q-4.38,4.25-7.76,13l-39,100.11h-3.06L350.45,535.36c-2.15-5.21-3.66-8.38-4.54-9.54a14.55,14.55,0,0,0-5.08-4.21,22.32,22.32,0,0,0-8.13-2v-3.21h45.72v3.21q-7.77.78-10.07,2.77a6.46,6.46,0,0,0-2.31,5.12c0,2.89,1.27,7.41,3.8,13.53l28.46,69L424.71,542q3.87-10.07,3.87-14a6.67,6.67,0,0,0-2.39-4.81c-1.6-1.53-4.29-2.61-8.09-3.25-.27-.06-.74-.15-1.4-.26v-3.21Z"/><path class="cls-1" d="M505.4,630.87v3.21H457.46v-3.21h4q6.94,0,10.07-4.25,2-2.77,2-13.36v-76q0-8.94-1.07-11.8a7.69,7.69,0,0,0-3.39-3.73,15,15,0,0,0-7.59-2.08h-4v-3.21H505.4v3.21h-4q-6.84,0-10,4.25-2.06,2.77-2.06,13.36v76q0,8.94,1.07,11.8a7.6,7.6,0,0,0,3.47,3.73,14.57,14.57,0,0,0,7.5,2.08Z"/><path class="cls-1" d="M607.3,516.45,608.54,544H605.4q-.9-7.29-2.47-10.4a17.07,17.07,0,0,0-6.81-7.42q-4.25-2.38-11.18-2.39H569.18V613.7q0,10.84,2.23,13.53c2.08,2.43,5.31,3.64,9.65,3.64h3.88v3.21H537.5v-3.21h4q7.09,0,10.07-4.51,1.82-2.77,1.82-12.66V523.82H539.89q-7.85,0-11.14,1.22a15.41,15.41,0,0,0-7.34,6.33q-3.06,4.68-3.63,12.66h-3.14L516,516.45Z"/><path class="cls-1" d="M674.21,588.28h0l-19-47.55-19.47,47.55Zm2.32,6.41H633.21l-7.59,18.57q-2.82,6.86-2.81,10.24a6,6,0,0,0,2.43,4.72q2.43,2.06,10.53,2.65v3.21H600.53v-3.21q7-1.3,9.08-3.38,4.2-4.17,9.32-16.92l39.36-96.81h2.89l38.94,97.85q4.71,11.8,8.54,15.31t10.69,4v3.21H675.21v-3.21q6.67-.35,9-2.34a6.14,6.14,0,0,0,2.35-4.86q0-3.81-3.3-12.06Z"/><path class="cls-1" d="M798.72,513.76v40.69h-3.05q-1.49-11.72-5.32-18.66a28.46,28.46,0,0,0-10.94-11,29.16,29.16,0,0,0-14.69-4.07,19.42,19.42,0,0,0-14.18,5.51,17.09,17.09,0,0,0-5.62,12.53,15.34,15.34,0,0,0,3.55,9.81q5.12,6.5,24.34,17.35,15.68,8.85,21.42,13.57a32.85,32.85,0,0,1,8.82,11.15,30.5,30.5,0,0,1,3.1,13.45,31.18,31.18,0,0,1-9.86,23q-9.87,9.67-25.38,9.67a51.33,51.33,0,0,1-9.16-.78,89.42,89.42,0,0,1-10.6-3.17q-8-2.73-10.19-2.73a4.21,4.21,0,0,0-3.26,1.3q-1.19,1.3-1.77,5.38h-3V596.43h3q2.15,12.66,5.78,19a28.17,28.17,0,0,0,11.09,10.46A33.06,33.06,0,0,0,769.18,630q10.32,0,16.3-5.72a18.12,18.12,0,0,0,6-13.53,19.08,19.08,0,0,0-2.27-8.76,25.88,25.88,0,0,0-7.05-8.25q-3.23-2.6-17.58-11.06t-20.42-13.49a35.88,35.88,0,0,1-9.2-11.1,28.69,28.69,0,0,1-3.14-13.36,29.65,29.65,0,0,1,9.25-21.82q9.24-9.15,23.51-9.15a45.24,45.24,0,0,1,18.9,4.6c3.08,1.44,5.25,2.17,6.51,2.17a4.78,4.78,0,0,0,3.51-1.35c.91-.9,1.63-2.7,2.19-5.42Z"/><path class="cls-2" d="M428.26,379.14q-3.39-4.15-35.75.21l30.81-12.48Z"/><path class="cls-2" d="M89,242.52l6.86.46c18.36-2.44,186.22-24.36,262.73-17.28,57,3.24,89.3,13.27,89.3,13.27s42.2,13.22,49.31,31.25c.87,0,1.4-1,1.74-2.33Q473.39,160.6,89.19,190.34Z"/><path class="cls-2" d="M910,242.52l-6.85.46c-18.36-2.44-186.22-24.36-262.74-17.28-57,3.24-89.29,13.27-89.29,13.27s-42.2,13.22-49.32,31.25c-.86,0-1.4-1-1.73-2.33Q525.63,160.58,910,190.36Z"/><path class="cls-1" d="M260.14,291l.77,11.13h-.77a16.15,16.15,0,0,0-3-6.26,8.71,8.71,0,0,0-6.84-3q-5.67,0-8.65,5.32a21.74,21.74,0,0,0-2.48,10.67,24.66,24.66,0,0,0,1.65,9.2,13.43,13.43,0,0,0,4.31,6.08,9.21,9.21,0,0,0,5.5,1.93,10.54,10.54,0,0,0,3.17-.48,11.13,11.13,0,0,0,3-1.45V313.88a10.92,10.92,0,0,0-.34-3.46,2.53,2.53,0,0,0-1.05-1.24,5.31,5.31,0,0,0-2.51-.42v-1h11.51v1h-.54a2.35,2.35,0,0,0-2.35,1.35,10.67,10.67,0,0,0-.44,3.77v10.77a21.06,21.06,0,0,1-5,2.37,18.55,18.55,0,0,1-5.45.76q-8.65,0-13.12-6.55a19.48,19.48,0,0,1-3.35-11.31A21.68,21.68,0,0,1,236,301a18.2,18.2,0,0,1,6.16-7.8,13.3,13.3,0,0,1,7.72-2.26,12.24,12.24,0,0,1,3,.33,24.29,24.29,0,0,1,3.75,1.38,5.17,5.17,0,0,0,1.66.55.85.85,0,0,0,.71-.45,4,4,0,0,0,.36-1.81Z"/><path class="cls-1" d="M390.29,327h-7.93l-10.09-16.44-1.83,0h-.6l-.68,0v10.22c0,2.21.2,3.59.6,4.13a2.93,2.93,0,0,0,2.51,1.12h1.17v1H360.68v-1h1.12a2.86,2.86,0,0,0,2.7-1.45,9.41,9.41,0,0,0,.46-3.8V298c0-2.21-.2-3.59-.6-4.12a3,3,0,0,0-2.56-1.16h-1.12v-1h10.85a21.86,21.86,0,0,1,7,.82,8.08,8.08,0,0,1,3.82,3,8.76,8.76,0,0,1,1.56,5.22,9.14,9.14,0,0,1-1.78,5.64,9.73,9.73,0,0,1-5.55,3.38l6.13,10.09a17.5,17.5,0,0,0,3.64,4.63,8,8,0,0,0,3.94,1.43Zm-21.13-18.08h.72l.51,0q4.25,0,6.42-2.19a7.58,7.58,0,0,0,2.17-5.55,8,8,0,0,0-1.75-5.35,5.78,5.78,0,0,0-4.63-2.06,17,17,0,0,0-3.44.48Z"/><path class="cls-1" d="M506.24,292.74v-1h10.55v1h-1.11a2.93,2.93,0,0,0-2.71,1.74,9.4,9.4,0,0,0-.46,3.74V312.5a29.6,29.6,0,0,1-.88,8.2,10.09,10.09,0,0,1-3.5,5,10.93,10.93,0,0,1-7.07,2.1q-4.89,0-7.41-2a10.81,10.81,0,0,1-3.58-5.38q-.7-2.32-.71-8.67V298c0-2.17-.25-3.59-.75-4.27a2.84,2.84,0,0,0-2.44-1h-1.12v-1h12.87v1h-1.14a2.81,2.81,0,0,0-2.65,1.38,9.11,9.11,0,0,0-.54,3.9v15.32a40.09,40.09,0,0,0,.31,4.7,11,11,0,0,0,1.16,4.13,6.89,6.89,0,0,0,2.41,2.45,7.21,7.21,0,0,0,3.83,1,9.31,9.31,0,0,0,5.23-1.51,7.76,7.76,0,0,0,3.15-3.87,26.18,26.18,0,0,0,.84-7.93V298c0-2.21-.2-3.59-.6-4.12a2.91,2.91,0,0,0-2.53-1.16Z"/><path class="cls-1" d="M621.39,310.5v10.25c0,2.21.21,3.59.63,4.13a2.9,2.9,0,0,0,2.51,1.12h1.14v1H612.91v-1H614a2.82,2.82,0,0,0,2.7-1.45,9.41,9.41,0,0,0,.46-3.8V298c0-2.21-.2-3.59-.6-4.12a3,3,0,0,0-2.56-1.16h-1.12v-1h10.91a16.55,16.55,0,0,1,6.31,1A9.06,9.06,0,0,1,634,296a9.47,9.47,0,0,1,1.58,5.47,10.16,10.16,0,0,1-2.4,7,8.63,8.63,0,0,1-6.79,2.69,16.64,16.64,0,0,1-2.35-.18C623.23,310.91,622.34,310.73,621.39,310.5Zm0-1.48c.78.17,1.48.3,2.07.38a10.48,10.48,0,0,0,1.53.13,4.9,4.9,0,0,0,3.94-2.09,8.52,8.52,0,0,0,1.65-5.42,11.15,11.15,0,0,0-.79-4.22,6.24,6.24,0,0,0-2.23-2.94,5.82,5.82,0,0,0-3.28-1,11.61,11.61,0,0,0-2.89.48Z"/><path class="cls-1" d="M748.57,291q5.79,0,10,5.21a19.92,19.92,0,0,1,4.25,13q0,8-4.28,13.31t-10.36,5.29a12.81,12.81,0,0,1-10.32-5.16q-4.18-5.16-4.19-13.38,0-8.39,4.83-13.67A13.12,13.12,0,0,1,748.57,291Zm-.41,1.91a7.43,7.43,0,0,0-6.41,3.51q-3,4.35-3,12.76,0,8.61,3.13,13.25a7.27,7.27,0,0,0,6.3,3.55,8.21,8.21,0,0,0,6.94-3.87q2.74-3.87,2.74-12.18,0-9.06-3-13.48A7.61,7.61,0,0,0,748.16,292.87Z"/><path class="cls-1" d="M609.92,778.56a5.09,5.09,0,0,0-4.43,2.44c-1.49,2.14-2.24,5.35-2.24,9.55s.78,7.64,2.32,9.93a5,5,0,0,0,4.35,2.46,5.71,5.71,0,0,0,4.86-2.73c1.33-1.88,2-4.93,2-9.08,0-4.54-.76-7.93-2.24-10.1A5.26,5.26,0,0,0,609.92,778.56Z"/><polygon class="cls-1" points="441.76 793.1 447.83 793.1 444.84 784.66 441.76 793.1"/><polygon class="cls-1" points="725.84 793.1 731.91 793.1 728.91 784.66 725.84 793.1"/><path class="cls-1" d="M89.26,763.36v52.32H910V763.36Zm129.13,41.7h-19V803h1.47a2.36,2.36,0,0,0,1.22-.35,1,1,0,0,0,.44-.61,9.29,9.29,0,0,0,.18-2.44V781.81c0-2.26-.27-2.75-.33-2.83a1.83,1.83,0,0,0-1.51-.52h-1.47v-2.07h19.11l.31,7.33h-1.9l-.09-.55a9.55,9.55,0,0,0-.73-2.78,2.28,2.28,0,0,0-1-.95,6.43,6.43,0,0,0-2.12-.23h-5.68v9.48h4.41c1.48,0,2-.31,2.16-.49a4.52,4.52,0,0,0,.82-2.84l0-.63h1.92v10.84h-1.88l-.06-.58a9.76,9.76,0,0,0-.44-2.36,1.59,1.59,0,0,0-.72-.83,3.81,3.81,0,0,0-1.83-.32h-4.41v8.36a9.29,9.29,0,0,0,.1,2,.46.46,0,0,0,.2.26s.19.12.95.12h3.92a8.26,8.26,0,0,0,2.62-.28,3.54,3.54,0,0,0,1.44-1.07,15.26,15.26,0,0,0,2-3.61l.17-.4h2Zm58.5-4.54c-2.32,3-5.86,4.54-10.55,4.54h-11V803h1.53a1.51,1.51,0,0,0,1.5-.76,6.44,6.44,0,0,0,.3-2.66V781.91c0-2.25-.28-2.74-.34-2.81a1.65,1.65,0,0,0-1.46-.64h-1.53v-2.07h10.09c3.54,0,6.29.5,8.18,1.48a10.86,10.86,0,0,1,4.63,4.93,17,17,0,0,1,1.73,7.8A15.9,15.9,0,0,1,276.89,800.52Zm63.94-22.06h-1.52a1.64,1.64,0,0,0-1.52,1,6.4,6.4,0,0,0-.28,2.6v11.1a23.54,23.54,0,0,1-.72,6.56,8.63,8.63,0,0,1-2.93,4.22,9.17,9.17,0,0,1-5.91,1.77,9.8,9.8,0,0,1-6.16-1.69,9.08,9.08,0,0,1-3-4.51,27.24,27.24,0,0,1-.58-6.93V781.91c0-2-.29-2.7-.46-2.93a1.56,1.56,0,0,0-1.36-.52h-1.53v-2.07h11.32v2.07h-1.55a1.49,1.49,0,0,0-1.48.75,6.07,6.07,0,0,0-.34,2.7v11.9a30.21,30.21,0,0,0,.24,3.57,8,8,0,0,0,.82,3,4.63,4.63,0,0,0,1.65,1.67,4.86,4.86,0,0,0,2.63.66,6.55,6.55,0,0,0,3.7-1.07,5.27,5.27,0,0,0,2.18-2.68,19.78,19.78,0,0,0,.62-5.94V781.91c0-2.25-.28-2.74-.33-2.81a1.63,1.63,0,0,0-1.44-.64h-1.55v-2.07h9.51ZM398,798.27a14.43,14.43,0,0,1-4.27,5.6,9.72,9.72,0,0,1-5.88,1.82,10.6,10.6,0,0,1-9.46-5.35,17,17,0,0,1-2.45-9.19,18.86,18.86,0,0,1,1.6-7.78,13.36,13.36,0,0,1,4.5-5.6,10.39,10.39,0,0,1,11.59-.46,2.35,2.35,0,0,0,.72.36.4.4,0,0,0,.3-.16,2.66,2.66,0,0,0,.45-1.2l.1-.54h1.79l.6,10.63H395.8l-.12-.5a11.75,11.75,0,0,0-2.83-5.7,6,6,0,0,0-4.27-1.67,6.14,6.14,0,0,0-3.77,1.26,8.6,8.6,0,0,0-2.69,4.1,22.15,22.15,0,0,0-1,7.31,18,18,0,0,0,1,6.2,8,8,0,0,0,2.8,3.86,7.06,7.06,0,0,0,4.22,1.33,6.46,6.46,0,0,0,3.62-1,14.21,14.21,0,0,0,3.6-4.32l.38-.63,1.51,1.19Zm60.8,6.79H448.3v-2l.63,0c1.06-.06,1.38-.28,1.45-.35a.9.9,0,0,0,.27-.67,8.62,8.62,0,0,0-.64-2.56l-1.24-3.49h-8l-1.42,3.87a7,7,0,0,0-.55,2.16.81.81,0,0,0,.3.62c.08.07.44.32,1.78.42l.61,0v2h-8.61v-1.95l.53-.11a3,3,0,0,0,1.51-.56,12.56,12.56,0,0,0,1.8-3.72l8.29-23h1.54l8.21,23.2a9.89,9.89,0,0,0,1.6,3.31,2.65,2.65,0,0,0,1.79.71l.61,0Zm57.1-6.79a14.53,14.53,0,0,1-4.27,5.6,9.72,9.72,0,0,1-5.89,1.82,10.62,10.62,0,0,1-9.46-5.35,17.09,17.09,0,0,1-2.45-9.19,18.71,18.71,0,0,1,1.61-7.78,13.26,13.26,0,0,1,4.49-5.6,10.41,10.41,0,0,1,11.6-.46,2.4,2.4,0,0,0,.71.36.38.38,0,0,0,.3-.16,2.78,2.78,0,0,0,.46-1.2l.09-.54h1.79l.61,10.63H513.7l-.13-.5a11.66,11.66,0,0,0-2.83-5.7,6,6,0,0,0-4.26-1.67,6.11,6.11,0,0,0-3.77,1.26,8.61,8.61,0,0,0-2.7,4.1,22.44,22.44,0,0,0-1,7.31,18,18,0,0,0,1,6.2,8.1,8.1,0,0,0,2.8,3.86,7.11,7.11,0,0,0,4.22,1.33,6.43,6.43,0,0,0,3.62-1,14.21,14.21,0,0,0,3.6-4.32l.39-.63,1.5,1.19Zm46.75-19.81h-1.51a1.62,1.62,0,0,0-1.5.7c-.08.12-.32.64-.32,2.75v17.66a9.59,9.59,0,0,0,.18,2.52,1.11,1.11,0,0,0,.47.54,2.12,2.12,0,0,0,1.17.36h1.51v2.07H551.36V803h1.49a1.64,1.64,0,0,0,1.53-.68,6.73,6.73,0,0,0,.29-2.74V781.91a10.82,10.82,0,0,0-.18-2.56,1,1,0,0,0-.44-.5,2.16,2.16,0,0,0-1.2-.39h-1.49v-2.07H562.6Zm55.93,22.87a10.64,10.64,0,0,1-17.1.1,16.68,16.68,0,0,1-3.4-10.8A15.87,15.87,0,0,1,602,779.56a10.88,10.88,0,0,1,8.29-3.79,10.51,10.51,0,0,1,8.31,4.28A16.19,16.19,0,0,1,622,790.58,16.61,16.61,0,0,1,618.53,801.33Zm64.27-22.87h-1.46a1.55,1.55,0,0,0-1.53.72,7,7,0,0,0-.27,2.63v23.7h-1.62L663.67,785v14.72c0,2.12.26,2.63.34,2.74a1.69,1.69,0,0,0,1.46.58H667v2.07h-9.37V803H659a1.52,1.52,0,0,0,1.52-.71,5.94,5.94,0,0,0,.3-2.61v-18.8a9.64,9.64,0,0,0-1.28-1.55,5.18,5.18,0,0,0-1.36-.73,3.9,3.9,0,0,0-1.26-.13h-.66v-2.07h7.3l13.13,19.06V781.81c0-2.19-.29-2.68-.35-2.75a1.66,1.66,0,0,0-1.47-.6h-1.46v-2.07h9.36Zm60,26.6H732.37v-2l.63,0c1.06-.06,1.38-.28,1.45-.35a.87.87,0,0,0,.27-.67,8.62,8.62,0,0,0-.64-2.56l-1.24-3.49h-8l-1.41,3.87a6.84,6.84,0,0,0-.56,2.16.81.81,0,0,0,.3.62c.08.07.44.32,1.78.42l.61,0v2H717v-1.95l.52-.11a3,3,0,0,0,1.51-.56,12.56,12.56,0,0,0,1.8-3.72l8.29-23h1.54l8.21,23.2a9.89,9.89,0,0,0,1.6,3.31,2.65,2.65,0,0,0,1.79.71l.61,0Zm53.57,0H777.33V803h1.52a1.58,1.58,0,0,0,1.53-.79,6.92,6.92,0,0,0,.27-2.66V781.91c0-2.24-.29-2.73-.35-2.8a1.62,1.62,0,0,0-1.45-.65h-1.52v-2.07h11.78v2.08h-.67a4.92,4.92,0,0,0-2.25.31,1.58,1.58,0,0,0-.72.76,9.66,9.66,0,0,0-.22,2.83v17.18a6.05,6.05,0,0,0,.21,2.06.66.66,0,0,0,.31.28,10.18,10.18,0,0,0,2.39.13h1.67a9.48,9.48,0,0,0,3.48-.41,4.35,4.35,0,0,0,1.69-1.43,13.54,13.54,0,0,0,1.69-3.55l.2-.57,1.8.47Z"/><path class="cls-1" d="M266.11,779.26a11.16,11.16,0,0,0-2.84.42v22.23a12.6,12.6,0,0,0,3,.43,7.37,7.37,0,0,0,6.05-3c1.63-2.07,2.46-4.93,2.46-8.5s-.83-6.49-2.46-8.53A7.51,7.51,0,0,0,266.11,779.26Z"/></svg>